<?xml version="1.0" encoding="UTF-8"?>
<!DOCTYPE svg PUBLIC "-//W3C//DTD SVG 1.1//EN" "http://www.w3.org/Graphics/SVG/1.1/DTD/svg11.dtd">
<!-- Creator: CorelDRAW 2017 -->
<svg xmlns="http://www.w3.org/2000/svg" xml:space="preserve" width="172.72mm" height="43.18mm" version="1.1" style="shape-rendering:geometricPrecision; text-rendering:geometricPrecision; image-rendering:optimizeQuality; fill-rule:evenodd; clip-rule:evenodd"
viewBox="0 0 17272 4318"
 xmlns:xlink="http://www.w3.org/1999/xlink">
 <defs>
  <style type="text/css">
   <![CDATA[
    .fil0 {fill:#252839;fill-rule:nonzero}
   ]]>
  </style>
 </defs>
 <g id="Layer_x0020_1">
  <metadata id="CorelCorpID_0Corel-Layer"/>
  <path class="fil0" d="M6480.89 3982.68l0 -536.32 -200.27 0 0 -71.28 481.16 0 0 71.28 -200.27 0 0 536.32 -80.62 0zm493.81 0l0 -607.6 438.73 0 0 71.28 -358.11 0 0 186.69 335.2 0 0 71.29 -335.2 0 0 207.06 372.54 0 0 71.28 -453.16 0zm1125.31 -213.14l80.62 20.36c-16.83,66.05 -47.1,116.26 -90.8,150.92 -43.7,34.65 -97.17,52.04 -160.39,52.04 -65.34,0 -118.52,-13.29 -159.54,-40.02 -41.01,-26.59 -72.13,-65.2 -93.48,-115.7 -21.36,-50.63 -32.11,-104.8 -32.11,-162.79 0,-63.22 12.02,-118.38 36.21,-165.48 24.18,-47.1 58.55,-82.88 103.1,-107.35 44.56,-24.46 93.63,-36.63 147.1,-36.63 60.81,0 111.87,15.42 153.17,46.39 41.44,30.98 70.29,74.4 86.56,130.41l-78.92 18.67c-14,-44.13 -34.51,-76.38 -61.24,-96.46 -26.73,-20.23 -60.4,-30.27 -100.99,-30.27 -46.53,0 -85.57,11.17 -116.82,33.52 -31.26,22.35 -53.32,52.47 -65.91,90.09 -12.73,37.77 -19.1,76.66 -19.1,116.69 0,51.62 7.5,96.74 22.49,135.21 14.99,38.61 38.33,67.32 70.01,86.42 31.68,19.09 65.91,28.57 102.83,28.57 44.97,0 82.88,-13.02 113.99,-38.9 31.12,-26.02 52.19,-64.49 63.22,-115.69zm311.65 213.14l0 -607.6 80.62 0 0 250.34 313.98 0 0 -250.34 80.62 0 0 607.6 -80.62 0 0 -285.98 -313.98 0 0 285.98 -80.62 0zm1641.97 -213.14l80.62 20.36c-16.83,66.05 -47.1,116.26 -90.8,150.92 -43.7,34.65 -97.17,52.04 -160.39,52.04 -65.34,0 -118.52,-13.29 -159.54,-40.02 -41.01,-26.59 -72.13,-65.2 -93.48,-115.7 -21.36,-50.63 -32.11,-104.8 -32.11,-162.79 0,-63.22 12.02,-118.38 36.21,-165.48 24.18,-47.1 58.55,-82.88 103.1,-107.35 44.56,-24.46 93.63,-36.63 147.1,-36.63 60.81,0 111.87,15.42 153.17,46.39 41.44,30.98 70.29,74.4 86.56,130.41l-78.92 18.67c-14,-44.13 -34.51,-76.38 -61.24,-96.46 -26.73,-20.23 -60.4,-30.27 -100.99,-30.27 -46.53,0 -85.57,11.17 -116.82,33.52 -31.26,22.35 -53.32,52.47 -65.91,90.09 -12.73,37.77 -19.1,76.66 -19.1,116.69 0,51.62 7.5,96.74 22.49,135.21 14.99,38.61 38.33,67.32 70.01,86.42 31.68,19.09 65.91,28.57 102.83,28.57 44.97,0 82.88,-13.02 113.99,-38.9 31.12,-26.02 52.19,-64.49 63.22,-115.69zm283.64 -82.6c0,-100.7 27.16,-179.62 81.33,-236.62 54.17,-57 124.04,-85.43 209.75,-85.43 56.15,0 106.64,13.44 151.76,40.17 44.97,26.73 79.34,64.07 102.96,112.02 23.62,47.8 35.5,102.11 35.5,162.79 0,61.52 -12.45,116.68 -37.34,165.19 -24.89,48.66 -60.11,85.43 -105.65,110.32 -45.68,25.04 -94.9,37.48 -147.66,37.48 -57.28,0 -108.34,-13.86 -153.45,-41.44 -44.98,-27.58 -79.21,-65.2 -102.4,-113 -23.2,-47.67 -34.8,-98.16 -34.8,-151.48zm83.17 1.41c0,73.13 19.66,130.69 58.98,172.7 39.31,42 88.68,63.08 148.08,63.08 60.53,0 110.18,-21.22 149.35,-63.65 39.04,-42.43 58.56,-102.68 58.56,-180.75 0,-49.36 -8.35,-92.5 -25.04,-129.28 -16.69,-36.77 -41.15,-65.34 -73.26,-85.56 -32.25,-20.23 -68.31,-30.41 -108.34,-30.41 -56.86,0 -105.79,19.52 -146.81,58.55 -41.01,39.04 -61.52,104.1 -61.52,195.32zm731.42 294.33l0 -607.6 269.29 0c54.17,0 95.33,5.51 123.48,16.4 28.14,10.89 50.63,30.13 67.46,57.71 16.83,27.58 25.18,58.13 25.18,91.51 0,43.13 -14.01,79.48 -41.87,109.04 -27.86,29.56 -70.86,48.23 -129.13,56.29 21.36,10.19 37.48,20.37 48.51,30.27 23.48,21.5 45.69,48.51 66.48,80.9l105.08 165.48 -100.42 0 -80.33 -126.44c-23.34,-36.63 -42.71,-64.5 -57.85,-83.87 -15.27,-19.38 -28.85,-32.82 -40.87,-40.6 -11.88,-7.63 -24.19,-13.01 -36.63,-16.12 -9.06,-1.84 -23.91,-2.83 -44.7,-2.83l-93.06 0 0 269.86 -80.62 0zm80.62 -339.44l172.55 0c36.77,0 65.34,-3.82 85.99,-11.46 20.65,-7.5 36.35,-19.66 46.96,-36.49 10.75,-16.69 16.12,-34.79 16.12,-54.45 0,-28.71 -10.32,-52.48 -31.11,-71 -20.8,-18.53 -53.61,-27.72 -98.44,-27.72l-192.07 0 0 201.12zm658.72 339.44l0 -607.6 229.41 0c40.31,0 71.14,1.98 92.5,5.79 29.84,4.95 54.88,14.43 75.1,28.29 20.23,14 36.49,33.52 48.8,58.56 12.3,25.03 18.38,52.61 18.38,82.73 0,51.49 -16.4,95.19 -49.36,130.83 -32.81,35.79 -92.36,53.61 -178.35,53.61l-155.86 0 0 247.79 -80.62 0zm80.62 -319.08l156.99 0c52.05,0 88.82,-9.61 110.75,-28.99 21.78,-19.38 32.67,-46.53 32.67,-81.75 0,-25.32 -6.37,-47.1 -19.24,-65.2 -12.87,-18.11 -29.84,-30.13 -50.77,-35.93 -13.58,-3.53 -38.61,-5.37 -74.96,-5.37l-155.44 0 0 217.24zm588.99 23.34c0,-100.7 27.16,-179.62 81.33,-236.62 54.17,-57 124.04,-85.43 209.75,-85.43 56.15,0 106.64,13.44 151.76,40.17 44.97,26.73 79.34,64.07 102.96,112.02 23.62,47.8 35.5,102.11 35.5,162.79 0,61.52 -12.45,116.68 -37.34,165.19 -24.89,48.66 -60.11,85.43 -105.65,110.32 -45.68,25.04 -94.9,37.48 -147.66,37.48 -57.28,0 -108.34,-13.86 -153.45,-41.44 -44.98,-27.58 -79.21,-65.2 -102.4,-113 -23.2,-47.67 -34.8,-98.16 -34.8,-151.48zm83.17 1.41c0,73.13 19.66,130.69 58.98,172.7 39.31,42 88.68,63.08 148.08,63.08 60.53,0 110.18,-21.22 149.35,-63.65 39.04,-42.43 58.56,-102.68 58.56,-180.75 0,-49.36 -8.35,-92.5 -25.04,-129.28 -16.69,-36.77 -41.15,-65.34 -73.26,-85.56 -32.25,-20.23 -68.31,-30.41 -108.34,-30.41 -56.86,0 -105.79,19.52 -146.81,58.55 -41.01,39.04 -61.52,104.1 -61.52,195.32zm731.42 294.33l0 -607.6 269.29 0c54.17,0 95.33,5.51 123.48,16.4 28.14,10.89 50.63,30.13 67.46,57.71 16.83,27.58 25.18,58.13 25.18,91.51 0,43.13 -14.01,79.48 -41.87,109.04 -27.86,29.56 -70.86,48.23 -129.13,56.29 21.36,10.19 37.48,20.37 48.51,30.27 23.48,21.5 45.69,48.51 66.48,80.9l105.08 165.48 -100.42 0 -80.33 -126.44c-23.34,-36.63 -42.71,-64.5 -57.85,-83.87 -15.27,-19.38 -28.85,-32.82 -40.87,-40.6 -11.88,-7.63 -24.19,-13.01 -36.63,-16.12 -9.06,-1.84 -23.91,-2.83 -44.7,-2.83l-93.06 0 0 269.86 -80.62 0zm80.62 -339.44l172.55 0c36.77,0 65.34,-3.82 85.99,-11.46 20.65,-7.5 36.35,-19.66 46.96,-36.49 10.75,-16.69 16.12,-34.79 16.12,-54.45 0,-28.71 -10.32,-52.48 -31.11,-71 -20.8,-18.53 -53.61,-27.72 -98.44,-27.72l-192.07 0 0 201.12zm592.11 339.44l233.08 -607.6 88.4 0 247.37 607.6 -91.51 0 -70.29 -184.15 -255.86 0 -65.91 184.15 -85.28 0zm174.81 -249.49l207.06 0 -63.36 -168.45c-19.1,-51.2 -33.52,-93.49 -43.56,-126.87 -8.35,39.6 -19.52,78.5 -33.52,116.97l-66.62 178.35zm677.53 249.49l0 -536.32 -200.27 0 0 -71.28 481.16 0 0 71.28 -200.27 0 0 536.32 -80.62 0zm505.69 0l0 -607.6 80.62 0 0 607.6 -80.62 0zm325.78 -295.74c0,-100.7 27.16,-179.62 81.33,-236.62 54.17,-57 124.04,-85.43 209.75,-85.43 56.15,0 106.64,13.44 151.76,40.17 44.97,26.73 79.34,64.07 102.96,112.02 23.62,47.8 35.5,102.11 35.5,162.79 0,61.52 -12.45,116.68 -37.34,165.19 -24.89,48.66 -60.11,85.43 -105.65,110.32 -45.68,25.04 -94.9,37.48 -147.66,37.48 -57.28,0 -108.34,-13.86 -153.45,-41.44 -44.98,-27.58 -79.21,-65.2 -102.4,-113 -23.2,-47.67 -34.8,-98.16 -34.8,-151.48zm83.17 1.41c0,73.13 19.66,130.69 58.98,172.7 39.31,42 88.68,63.08 148.08,63.08 60.53,0 110.18,-21.22 149.35,-63.65 39.04,-42.43 58.56,-102.68 58.56,-180.75 0,-49.36 -8.35,-92.5 -25.04,-129.28 -16.69,-36.77 -41.15,-65.34 -73.26,-85.56 -32.25,-20.23 -68.31,-30.41 -108.34,-30.41 -56.86,0 -105.79,19.52 -146.81,58.55 -41.01,39.04 -61.52,104.1 -61.52,195.32zm728.87 294.33l0 -607.6 82.6 0 318.8 476.91 0 -476.91 77.22 0 0 607.6 -82.6 0 -318.79 -476.92 0 476.92 -77.23 0z"/>
  <path class="fil0" d="M243.36 375.57c206.21,7.64 263.5,11.46 320.78,71.92 57.28,61.1 57.28,156.57 57.28,228.49l0 1845.76c-15.27,267.32 -80.19,282.59 -400.97,294.05l0 129.84 2207.27 0 49.64 -840.14 -118.38 0c-34.37,206.22 -103.11,404.8 -248.22,538.45 -168.03,156.58 -381.88,164.21 -553.73,164.21 -160.39,0 -263.5,0 -374.24,-45.82 -152.76,-61.1 -160.39,-164.21 -160.39,-294.05l0 -882.15 255.86 0c103.1,3.82 244.4,11.46 320.78,141.3 42,72.56 45.82,164.21 49.64,259.68l122.2 0 0 -915.24 -118.38 0c-7.64,87.83 -19.09,201.76 -91.65,281.95 -80.2,87.2 -187.12,91.02 -286.41,94.84l-252.04 0 0 -1057.81 523.17 0c370.43,3.81 462.08,91.01 603.37,525.08l122.21 0 -76.38 -666.38 -1951.41 0 0 126.02zm2626.79 1011.99c210.03,7.63 271.13,30.55 274.95,198.57l0 897.42c3.82,114.57 7.64,271.14 152.75,393.34 87.84,68.74 210.04,114.57 355.15,114.57 278.78,0 458.26,-148.94 569.01,-240.59 11.45,110.75 15.27,137.48 34.36,240.59 252.05,-38.19 316.97,-45.83 576.65,-45.83l0 -114.56c-229.13,-15.28 -278.78,-19.1 -286.42,-171.85l0 -1393.87 -626.28 0 0 122.21c202.4,7.63 290.23,19.09 294.05,202.39l0 1004.35c-68.74,68.74 -213.86,210.03 -431.53,210.03 -129.84,0 -206.21,-57.28 -240.58,-99.29 -57.28,-68.73 -61.1,-156.57 -64.92,-232.94l0 -1206.75 -607.19 0 0 122.21zm2332.74 103.1c198.58,3.82 274.96,22.92 286.41,179.49l0 2096.52c-11.45,129.84 -68.73,137.48 -271.13,145.12l0 110.74 878.32 0 0 -110.74c-190.94,0 -259.67,3.82 -271.13,-152.75l0 -950.89c106.93,72.56 263.5,183.31 527,183.31 546.09,0 786.67,-481.17 786.67,-905.06 0,-504.09 -309.32,-866.87 -771.4,-866.87 -294.05,0 -462.08,148.93 -561.36,240.58 -19.1,-106.92 -26.74,-145.11 -57.29,-252.04 -236.76,106.93 -294.05,122.2 -546.09,164.21l0 118.38zm622.47 210.04c22.91,-34.37 49.64,-72.56 76.38,-110.75 103.1,-129.84 244.4,-213.85 408.61,-213.85 137.48,0 255.86,64.92 328.42,156.57 61.1,80.2 99.28,202.4 118.38,290.23 15.27,80.19 19.09,160.39 19.09,244.4 0,569.01 -248.22,759.95 -507.9,759.95 -213.85,0 -351.33,-122.21 -442.98,-206.22l0 -920.33zm1782.83 -1325.13c206.22,3.82 290.23,3.82 290.23,179.48l0 2085.08c-7.64,175.66 -72.56,179.48 -271.13,194.75l0 110.75 874.5 0 0 -110.75c-198.58,-15.27 -255.86,-19.09 -263.5,-175.66l0 -1050.17c49.65,-45.83 103.11,-95.47 210.04,-141.3 80.19,-30.55 160.39,-45.83 232.95,-45.83 175.66,0 267.31,84.02 305.5,168.03 30.55,64.92 34.37,156.57 34.37,294.05l0 794.31c-3.82,45.83 -7.64,110.75 -106.93,137.48 -19.09,3.82 -76.37,11.46 -164.2,19.09l0 110.75 870.68 0 0 -110.75c-183.3,-7.63 -263.49,-11.45 -267.31,-160.39l0 -840.13c0,-156.57 0,-297.87 -72.56,-404.8 -64.92,-103.11 -217.67,-210.03 -450.62,-210.03 -271.14,0 -454.44,129.84 -591.92,229.13l0 -1309.86c-255.86,91.66 -328.41,106.93 -630.1,126.03l0 110.74zm3382.91 843.96c-126.02,0 -301.68,30.55 -442.98,99.29 -236.76,118.38 -442.98,381.88 -442.98,801.95 0,492.62 282.59,878.32 870.69,878.32 206.21,0 439.16,-42 630.1,-240.58 236.77,-248.22 244.41,-557.55 244.41,-660.66 0,-637.74 -442.99,-878.32 -859.24,-878.32zm-3.81 122.2c76.37,0 152.75,15.28 217.67,49.64 160.39,84.02 282.59,252.05 282.59,717.94 0,343.69 -84.01,759.94 -507.9,759.94 -511.72,0 -511.72,-611.01 -511.72,-744.66 0,-358.97 80.19,-782.86 519.36,-782.86zm1347.49 148.93c217.67,7.64 286.41,7.64 290.23,202.4l0 989.07c-7.64,110.75 -57.28,141.3 -267.32,152.75l0 110.75 920.33 0 0 -110.75c-271.13,-19.09 -313.14,-34.36 -316.96,-179.48l0 -985.25c64.92,-84.02 160.39,-202.4 297.87,-202.4 72.56,0 106.93,34.37 129.84,64.92 15.28,22.91 26.73,49.64 45.83,64.92 22.91,19.09 53.46,26.73 84.01,26.73 99.29,0 148.93,-80.19 148.93,-164.21 0,-53.46 -34.37,-210.03 -236.76,-210.03 -225.31,0 -374.25,164.21 -484.99,290.23 -19.1,-152.75 -26.73,-190.94 -64.92,-313.14 -210.04,95.47 -271.14,114.56 -546.09,152.75l0 110.74zm2126.52 -649.19c114.56,0 206.22,-91.66 206.22,-202.4 0,-114.57 -91.66,-206.22 -206.22,-206.22 -110.74,0 -202.4,91.65 -202.4,206.22 0,110.74 91.66,202.4 202.4,202.4zm-442.98 653.01c202.4,0 286.41,11.46 290.23,194.76l0 981.44c-7.64,118.38 -53.47,145.11 -271.14,156.57l0 118.38 870.69 0 0 -114.56c-221.49,-19.1 -267.32,-34.37 -267.32,-198.58l0 -1405.32c-248.22,103.1 -316.96,118.38 -622.46,148.93l0 118.38zm2355.66 385.7c-57.29,22.91 -118.39,42.01 -179.49,61.1 -103.11,26.73 -206.21,42.01 -305.5,68.74 -297.87,68.74 -496.45,194.76 -496.45,523.18 0,294.05 194.76,427.71 431.53,427.71 267.31,0 473.53,-202.4 561.36,-286.42 11.46,68.74 22.91,148.94 103.11,217.68 38.19,26.73 103.11,68.74 225.31,68.74 297.87,0 366.61,-263.5 400.97,-393.34l-118.38 0c-19.09,72.56 -53.46,206.21 -175.66,206.21 -106.93,0 -110.75,-103.1 -114.57,-160.39l0 -966.16c0,-232.94 -206.21,-427.7 -626.28,-427.7 -511.72,0 -653.02,290.23 -653.02,381.88 0,145.11 152.75,145.11 179.48,145.11 30.56,0 118.39,-3.82 160.39,-87.83 19.1,-42.01 19.1,-87.83 30.56,-133.66 45.82,-183.3 225.3,-183.3 263.49,-183.3 68.74,0 244.41,11.46 297.87,187.12 15.28,49.65 15.28,99.29 15.28,152.75l0 198.58zm3.81 687.39c-87.83,68.74 -206.21,160.39 -370.42,160.39 -137.48,0 -274.95,-80.2 -274.95,-274.96 0,-61.1 7.63,-187.12 156.57,-278.77 76.37,-49.64 164.21,-68.74 252.04,-95.47 80.19,-22.91 160.39,-53.46 236.76,-80.19l0 569z"/>
  <polygon class="fil0" points="189.88,3104.76 17065.37,3104.76 17065.37,3150.59 189.88,3150.59 "/>
 </g>
</svg>
